<?xml version="1.0" encoding="utf-8"?>
<!-- Generator: Adobe Illustrator 27.5.0, SVG Export Plug-In . SVG Version: 6.00 Build 0)  -->
<svg version="1.1" id="Camada_1" xmlns="http://www.w3.org/2000/svg" xmlns:xlink="http://www.w3.org/1999/xlink" x="0px" y="0px"
	 viewBox="0 0 1489 684" style="enable-background:new 0 0 1489 684;" xml:space="preserve">
<style type="text/css">
	.st0{fill:#FFFFFF;}
</style>
<path class="st0" d="M254,118.5c2.8-0.7,5.7-1,8.6-0.5c-0.1,50.8,0,101.6,0,152.4c0,2.1-0.3,4.3-1.7,5.9
	c-29.9,41.1-59.9,82.1-89.7,123.2c-1.7,2.1-3.1,5.4-6.2,5.4c-44.3,0.5-88.6,0.1-132.9,0.3c-5.3-0.2-10.7,0.6-15.8-1
	c3.1-12.6,8.9-24.5,16.6-35c53.9-71.4,107.9-142.8,161.8-214.2C209.3,136.4,230.7,123.3,254,118.5z M288.3,119.5
	c-0.1-2.6,3.2-1.6,4.8-1.6c25,4,48.2,17.9,63.5,37.9c53.6,71,107.3,142,161,213c7.7,10.4,13.5,22.2,16.7,34.8
	c-6.8,2.6-14.3,0.5-21.4,1.4c-41.3,0.2-82.7,0-124,0.1c-2.3-0.1-5.2,0.1-6.7-2c-30.9-42.2-61.5-84.5-92.4-126.7
	c-3-4.1-1.5-9.4-1.9-14.1c0.5-21,0.2-42,0.3-63C287.5,172.8,288.5,146.2,288.3,119.5L288.3,119.5z M1261,233.4
	c22.1-10.8,47.7-13.9,71.9-9.7c21.5,3.5,41.3,15,56.3,30.6c6.3-8.2,12.4-16.7,18.8-24.8c0.8-0.9,1.5-2.3,2.9-1.9
	c15.4,0,30.7,0,46.1,0c0,72.3,0,144.7,0,217c-0.8,33.6-14.7,67.5-40.4,89.7c-13.6,11.9-29.9,20.6-47.2,26c-23.4,7-48.3,8.6-72.5,6
	c-31.1-3.1-61.2-15.3-85.8-34.6c13.7-18.3,27.3-36.6,41.1-54.9c16.1,13.6,36.6,22.6,57.8,23.2c17.8,0.9,37.2-1.2,51.5-12.7
	c13.5-11.1,17.9-29.6,18-46.4c-14.1,11.2-30.9,18.8-48.7,21.4c-24.9,3.5-51.2,0-73.5-12c-29.1-15.5-50.3-44.5-57-76.7
	c-5.4-25.2-4.2-51.9,4.4-76.2C1214.5,269.8,1234.6,245.9,1261,233.4 M1316.4,293.1c-13,2.5-25.2,10.2-32.4,21.4
	c-13.6,20.8-10.8,51.2,7.5,68.4c12.9,12.4,32.4,16,49.6,12.6c17.9-3,33.6-16.7,38.7-34.1c5.4-18.2,2.2-39.7-11.3-53.5
	C1355.6,293.8,1334.8,289.5,1316.4,293.1L1316.4,293.1z M714,225.6c24.1-5.1,49.5-4.3,73.2,2.7c29.6,8.5,54.8,30.6,67.5,58.6
	c13.3,28.5,15.9,61,11.6,91.9c-56.8,0-113.6,0-170.4,0c4.7,15,15,28.7,29.6,35.2c15.5,7,33.2,6.4,49.6,3.4
	c13-2.5,24.7-9.3,35.4-16.9c12.4,16.6,24.8,33.3,37.5,49.7c-13.9,12.8-30.5,22.7-48.5,28.7c-16.9,5.6-34.9,7.4-52.6,7.4
	c-19.6-0.4-39.3-4.2-56.9-12.9c-18.2-8.8-34.4-22-46.3-38.4c-21.8-29.7-29.5-68.4-23.7-104.5c4.9-31.3,20.5-61.4,45.4-81.3
	C679.6,237.7,696.3,229.5,714,225.6 M719.4,292.9c-12.6,7.2-20.2,20.5-24,34.1c33.6,0,67.3,0,100.9,0c-1.7-6.4-3.9-12.8-7.4-18.4
	c-5.2-9-13.9-15.8-23.7-19.2C750.3,284.1,733.3,285.4,719.4,292.9z M1022.9,228.1c14.5-5.1,30-6.4,45.2-6.1
	c17.2,0.6,34.6,4.8,49.3,14.1c18.7,11.7,32.7,30.4,39.2,51.5c4.5,13.8,6.2,28.4,6.4,42.9c0,49.5,0,99,0,148.5
	c-26.3,0-52.6-0.1-78.9,0c-0.2-44.2,0-88.4-0.1-132.6c-0.1-13.5-2.6-27.8-11.6-38.4c-8.7-10.5-23.1-14.8-36.4-13.7
	c-20.6,0.8-39.7,16.1-45.3,35.8c-2,6.9-1.7,14.1-1.7,21.2c0,42.5,0,85,0,127.6c-26.3-0.1-52.7,0-79-0.1c0-83.8,0-167.6,0-251.5
	c15.9,0.1,31.8-0.2,47.7,0.1c7.3,9.4,14.1,19.1,21.2,28.5C991.1,243.5,1006.3,233.7,1022.9,228.1L1022.9,228.1z M13.1,429.8
	c5.3-0.9,10.6-0.5,15.9-0.6c69.7,0,139.3,0,208.9,0c0.4,8.7,0.1,17.5,0.1,26.2c-73,0-146.1,0-219.1,0c-1.3,0.1-3-0.1-3.1-1.7
	C13.7,446,13,437.9,13.1,429.8z M313.2,429.8c3.5-0.7,7.2-0.4,10.8-0.6c63.4,0,126.7,0,190.1,0c7.7,0.2,15.4-0.5,23,0.6
	c0.8,1.4,0.3,3.1,0.4,4.7c-0.3,7.1-1.2,14.2-3.2,21c-73.9,0-147.8,0-221.8,0C312.9,447,311.5,438.2,313.2,429.8L313.2,429.8z
	 M24.1,479.8c18.6-0.2,37.3,0.3,55.9-0.3c25,0,50,0,75,0c27.8-0.1,55.5,0.5,83.3,0.2c-0.4,8.8-0.1,17.5-0.3,26.3
	c-67.4,0-134.8,0-202.2,0C31.1,497.6,27.3,488.8,24.1,479.8L24.1,479.8z M312.5,479.7c20.5,0,41,0.1,61.5-0.2c31.7,0,63.3,0,95,0
	c19.2,0.5,38.4,0.1,57.5,0.3c-3.2,9-7.1,17.8-11.7,26.2c-67.4,0-134.8,0-202.3,0C312.5,497.2,312.5,488.5,312.5,479.7L312.5,479.7z
	 M55.9,530.3c35.9-0.2,71.8-0.5,107.7-0.2c24.8,0.4,49.7,0,74.5,0.2c-0.5,8.7,1.5,17.6-0.9,26.1c-39-0.2-78.1,0-117.1-0.1
	C96.5,555.3,73.3,546.2,55.9,530.3L55.9,530.3z M312.5,530.2c49.1,0.1,98.2-0.5,147.4-0.2c11.6,0.4,23.2,0,34.8,0.2
	c-15.5,14.3-35.9,23.1-56.8,25.4c-6.3,0.8-12.6,0.5-18.9,0.6H323c-3.4-0.1-6.9,0.3-10.2-0.5C312.3,547.2,312.6,538.7,312.5,530.2z"
	/>
</svg>
